<svg xmlns="http://www.w3.org/2000/svg" width="900" height="520" viewBox="0 0 900 520">
  <rect width="100%" height="100%" fill="white"/>
  <text x="450" y="28" text-anchor="middle" font-size="20" font-weight="700">k-Violations Across k and Temporal Settings</text>
  <line x1="82" y1="48" x2="82" y2="448" stroke="#111827"/>
  <line x1="82" y1="448" x2="710" y2="448" stroke="#111827"/>
  <line x1="76" y1="448" x2="82" y2="448" stroke="#111827"/>
      <line x1="82" y1="448" x2="710" y2="448" stroke="#e5e7eb"/>
      <text x="72" y="452" text-anchor="end" font-size="12">0</text>
<line x1="76" y1="368" x2="82" y2="368" stroke="#111827"/>
      <line x1="82" y1="368" x2="710" y2="368" stroke="#e5e7eb"/>
      <text x="72" y="372" text-anchor="end" font-size="12">0.20</text>
<line x1="76" y1="288" x2="82" y2="288" stroke="#111827"/>
      <line x1="82" y1="288" x2="710" y2="288" stroke="#e5e7eb"/>
      <text x="72" y="292" text-anchor="end" font-size="12">0.40</text>
<line x1="76" y1="208" x2="82" y2="208" stroke="#111827"/>
      <line x1="82" y1="208" x2="710" y2="208" stroke="#e5e7eb"/>
      <text x="72" y="212" text-anchor="end" font-size="12">0.60</text>
<line x1="76" y1="128" x2="82" y2="128" stroke="#111827"/>
      <line x1="82" y1="128" x2="710" y2="128" stroke="#e5e7eb"/>
      <text x="72" y="132" text-anchor="end" font-size="12">0.80</text>
<line x1="76" y1="48" x2="82" y2="48" stroke="#111827"/>
      <line x1="82" y1="48" x2="710" y2="48" stroke="#e5e7eb"/>
      <text x="72" y="52" text-anchor="end" font-size="12">1</text>
  <line x1="82" y1="448" x2="82" y2="454" stroke="#111827"/>
      <text x="82" y="474" text-anchor="middle" font-size="12">1000</text>
<line x1="291.3333333333333" y1="448" x2="291.3333333333333" y2="454" stroke="#111827"/>
      <text x="291.3333333333333" y="474" text-anchor="middle" font-size="12">5000</text>
<line x1="500.66666666666663" y1="448" x2="500.66666666666663" y2="454" stroke="#111827"/>
      <text x="500.66666666666663" y="474" text-anchor="middle" font-size="12">10000</text>
<line x1="710" y1="448" x2="710" y2="454" stroke="#111827"/>
      <text x="710" y="474" text-anchor="middle" font-size="12">25000</text>
  <polyline points="82,448 291.3333333333333,448 500.66666666666663,448 710,448" fill="none" stroke="#2563eb" stroke-width="2.5"/>
<polyline points="82,448 291.3333333333333,448 500.66666666666663,448 710,448" fill="none" stroke="#dc2626" stroke-width="2.5"/>
<polyline points="82,448 291.3333333333333,448 500.66666666666663,448 710,448" fill="none" stroke="#16a34a" stroke-width="2.5"/>
<polyline points="82,448 291.3333333333333,448 500.66666666666663,448 710,448" fill="none" stroke="#9333ea" stroke-width="2.5"/>
<polyline points="82,448 291.3333333333333,448 500.66666666666663,448 710,448" fill="none" stroke="#ea580c" stroke-width="2.5"/>
<polyline points="82,448 291.3333333333333,448 500.66666666666663,448 710,448" fill="none" stroke="#0891b2" stroke-width="2.5"/>
<polyline points="82,448 291.3333333333333,448 500.66666666666663,448 710,448" fill="none" stroke="#4f46e5" stroke-width="2.5"/>
<polyline points="82,448 291.3333333333333,448 500.66666666666663,448 710,448" fill="none" stroke="#be123c" stroke-width="2.5"/>
<polyline points="82,448 291.3333333333333,448 500.66666666666663,448 710,448" fill="none" stroke="#65a30d" stroke-width="2.5"/>
<polyline points="82,448 291.3333333333333,448 500.66666666666663,448 710,448" fill="none" stroke="#2563eb" stroke-width="2.5"/>
<polyline points="82,448 291.3333333333333,448 500.66666666666663,448 710,448" fill="none" stroke="#dc2626" stroke-width="2.5"/>
<polyline points="82,448 291.3333333333333,448 500.66666666666663,448 710,448" fill="none" stroke="#16a34a" stroke-width="2.5"/>
<polyline points="82,448 291.3333333333333,448 500.66666666666663,448 710,448" fill="none" stroke="#9333ea" stroke-width="2.5"/>
<polyline points="291.3333333333333,448 500.66666666666663,448 710,448" fill="none" stroke="#ea580c" stroke-width="2.5"/>
<polyline points="291.3333333333333,448 500.66666666666663,448 710,448" fill="none" stroke="#0891b2" stroke-width="2.5"/>
<polyline points="500.66666666666663,448 710,448" fill="none" stroke="#4f46e5" stroke-width="2.5"/>
<polyline points="500.66666666666663,448 710,448" fill="none" stroke="#be123c" stroke-width="2.5"/>
  <circle cx="82" cy="448" r="4" fill="#2563eb"/>
<circle cx="82" cy="448" r="4" fill="#dc2626"/>
<circle cx="82" cy="448" r="4" fill="#16a34a"/>
<circle cx="82" cy="448" r="4" fill="#9333ea"/>
<circle cx="82" cy="448" r="4" fill="#ea580c"/>
<circle cx="82" cy="448" r="4" fill="#0891b2"/>
<circle cx="82" cy="448" r="4" fill="#4f46e5"/>
<circle cx="82" cy="448" r="4" fill="#be123c"/>
<circle cx="82" cy="448" r="4" fill="#65a30d"/>
<circle cx="82" cy="448" r="4" fill="#2563eb"/>
<circle cx="82" cy="448" r="4" fill="#dc2626"/>
<circle cx="82" cy="448" r="4" fill="#16a34a"/>
<circle cx="82" cy="448" r="4" fill="#9333ea"/>
<circle cx="291.3333333333333" cy="448" r="4" fill="#2563eb"/>
<circle cx="291.3333333333333" cy="448" r="4" fill="#dc2626"/>
<circle cx="291.3333333333333" cy="448" r="4" fill="#16a34a"/>
<circle cx="291.3333333333333" cy="448" r="4" fill="#9333ea"/>
<circle cx="291.3333333333333" cy="448" r="4" fill="#ea580c"/>
<circle cx="291.3333333333333" cy="448" r="4" fill="#0891b2"/>
<circle cx="291.3333333333333" cy="448" r="4" fill="#4f46e5"/>
<circle cx="291.3333333333333" cy="448" r="4" fill="#be123c"/>
<circle cx="291.3333333333333" cy="448" r="4" fill="#65a30d"/>
<circle cx="291.3333333333333" cy="448" r="4" fill="#ea580c"/>
<circle cx="291.3333333333333" cy="448" r="4" fill="#2563eb"/>
<circle cx="291.3333333333333" cy="448" r="4" fill="#dc2626"/>
<circle cx="291.3333333333333" cy="448" r="4" fill="#16a34a"/>
<circle cx="291.3333333333333" cy="448" r="4" fill="#9333ea"/>
<circle cx="291.3333333333333" cy="448" r="4" fill="#0891b2"/>
<circle cx="500.66666666666663" cy="448" r="4" fill="#2563eb"/>
<circle cx="500.66666666666663" cy="448" r="4" fill="#dc2626"/>
<circle cx="500.66666666666663" cy="448" r="4" fill="#16a34a"/>
<circle cx="500.66666666666663" cy="448" r="4" fill="#9333ea"/>
<circle cx="500.66666666666663" cy="448" r="4" fill="#ea580c"/>
<circle cx="500.66666666666663" cy="448" r="4" fill="#0891b2"/>
<circle cx="500.66666666666663" cy="448" r="4" fill="#4f46e5"/>
<circle cx="500.66666666666663" cy="448" r="4" fill="#be123c"/>
<circle cx="500.66666666666663" cy="448" r="4" fill="#65a30d"/>
<circle cx="500.66666666666663" cy="448" r="4" fill="#ea580c"/>
<circle cx="500.66666666666663" cy="448" r="4" fill="#2563eb"/>
<circle cx="500.66666666666663" cy="448" r="4" fill="#4f46e5"/>
<circle cx="500.66666666666663" cy="448" r="4" fill="#dc2626"/>
<circle cx="500.66666666666663" cy="448" r="4" fill="#16a34a"/>
<circle cx="500.66666666666663" cy="448" r="4" fill="#9333ea"/>
<circle cx="500.66666666666663" cy="448" r="4" fill="#be123c"/>
<circle cx="500.66666666666663" cy="448" r="4" fill="#0891b2"/>
<circle cx="710" cy="448" r="4" fill="#2563eb"/>
<circle cx="710" cy="448" r="4" fill="#dc2626"/>
<circle cx="710" cy="448" r="4" fill="#16a34a"/>
<circle cx="710" cy="448" r="4" fill="#9333ea"/>
<circle cx="710" cy="448" r="4" fill="#ea580c"/>
<circle cx="710" cy="448" r="4" fill="#0891b2"/>
<circle cx="710" cy="448" r="4" fill="#4f46e5"/>
<circle cx="710" cy="448" r="4" fill="#be123c"/>
<circle cx="710" cy="448" r="4" fill="#65a30d"/>
<circle cx="710" cy="448" r="4" fill="#ea580c"/>
<circle cx="710" cy="448" r="4" fill="#2563eb"/>
<circle cx="710" cy="448" r="4" fill="#4f46e5"/>
<circle cx="710" cy="448" r="4" fill="#dc2626"/>
<circle cx="710" cy="448" r="4" fill="#16a34a"/>
<circle cx="710" cy="448" r="4" fill="#9333ea"/>
<circle cx="710" cy="448" r="4" fill="#be123c"/>
<circle cx="710" cy="448" r="4" fill="#0891b2"/>
  <text x="396" y="496" text-anchor="middle" font-size="14">Sample size (rows)</text>
  <text x="22" y="248" transform="rotate(-90 22 248)" text-anchor="middle" font-size="14">k-Violations (groups)</text>
  <line x1="738" y1="48" x2="760" y2="48" stroke="#2563eb" stroke-width="3"/>
      <text x="768" y="52" font-size="12">merge-nearest, none, k=5</text>
<line x1="738" y1="70" x2="760" y2="70" stroke="#dc2626" stroke-width="3"/>
      <text x="768" y="74" font-size="12">suppression-baseline, none, k=5</text>
<line x1="738" y1="92" x2="760" y2="92" stroke="#16a34a" stroke-width="3"/>
      <text x="768" y="96" font-size="12">merge-nearest, none, k=10</text>
<line x1="738" y1="114" x2="760" y2="114" stroke="#9333ea" stroke-width="3"/>
      <text x="768" y="118" font-size="12">suppression-baseline, none, k=10</text>
<line x1="738" y1="136" x2="760" y2="136" stroke="#ea580c" stroke-width="3"/>
      <text x="768" y="140" font-size="12">merge-nearest, none, k=20</text>
<line x1="738" y1="158" x2="760" y2="158" stroke="#0891b2" stroke-width="3"/>
      <text x="768" y="162" font-size="12">suppression-baseline, none, k=20</text>
<line x1="738" y1="180" x2="760" y2="180" stroke="#4f46e5" stroke-width="3"/>
      <text x="768" y="184" font-size="12">merge-nearest, period, k=5</text>
<line x1="738" y1="202" x2="760" y2="202" stroke="#be123c" stroke-width="3"/>
      <text x="768" y="206" font-size="12">suppression-baseline, period, k=5</text>
<line x1="738" y1="224" x2="760" y2="224" stroke="#65a30d" stroke-width="3"/>
      <text x="768" y="228" font-size="12">merge-nearest, period, k=10</text>
<line x1="738" y1="246" x2="760" y2="246" stroke="#2563eb" stroke-width="3"/>
      <text x="768" y="250" font-size="12">merge-nearest, period, k=20</text>
<line x1="738" y1="268" x2="760" y2="268" stroke="#dc2626" stroke-width="3"/>
      <text x="768" y="272" font-size="12">merge-nearest, hour, k=5</text>
<line x1="738" y1="290" x2="760" y2="290" stroke="#16a34a" stroke-width="3"/>
      <text x="768" y="294" font-size="12">suppression-baseline, hour, k=5</text>
<line x1="738" y1="312" x2="760" y2="312" stroke="#9333ea" stroke-width="3"/>
      <text x="768" y="316" font-size="12">merge-nearest, hour, k=10</text>
<line x1="738" y1="334" x2="760" y2="334" stroke="#ea580c" stroke-width="3"/>
      <text x="768" y="338" font-size="12">suppression-baseline, period, k=10</text>
<line x1="738" y1="356" x2="760" y2="356" stroke="#0891b2" stroke-width="3"/>
      <text x="768" y="360" font-size="12">merge-nearest, hour, k=20</text>
<line x1="738" y1="378" x2="760" y2="378" stroke="#4f46e5" stroke-width="3"/>
      <text x="768" y="382" font-size="12">suppression-baseline, period, k=20</text>
<line x1="738" y1="400" x2="760" y2="400" stroke="#be123c" stroke-width="3"/>
      <text x="768" y="404" font-size="12">suppression-baseline, hour, k=10</text>
</svg>