<svg xmlns="http://www.w3.org/2000/svg" width="900" height="520" viewBox="0 0 900 520">
  <rect width="100%" height="100%" fill="white"/>
  <text x="450" y="28" text-anchor="middle" font-size="20" font-weight="700">Mean Spatial Error Across k and Temporal Settings</text>
  <line x1="82" y1="48" x2="82" y2="448" stroke="#111827"/>
  <line x1="82" y1="448" x2="710" y2="448" stroke="#111827"/>
  <line x1="76" y1="448" x2="82" y2="448" stroke="#111827"/>
      <line x1="82" y1="448" x2="710" y2="448" stroke="#e5e7eb"/>
      <text x="72" y="452" text-anchor="end" font-size="12">0</text>
<line x1="76" y1="368" x2="82" y2="368" stroke="#111827"/>
      <line x1="82" y1="368" x2="710" y2="368" stroke="#e5e7eb"/>
      <text x="72" y="372" text-anchor="end" font-size="12">0.78</text>
<line x1="76" y1="288" x2="82" y2="288" stroke="#111827"/>
      <line x1="82" y1="288" x2="710" y2="288" stroke="#e5e7eb"/>
      <text x="72" y="292" text-anchor="end" font-size="12">1.57</text>
<line x1="76" y1="208" x2="82" y2="208" stroke="#111827"/>
      <line x1="82" y1="208" x2="710" y2="208" stroke="#e5e7eb"/>
      <text x="72" y="212" text-anchor="end" font-size="12">2.35</text>
<line x1="76" y1="128" x2="82" y2="128" stroke="#111827"/>
      <line x1="82" y1="128" x2="710" y2="128" stroke="#e5e7eb"/>
      <text x="72" y="132" text-anchor="end" font-size="12">3.14</text>
<line x1="76" y1="48" x2="82" y2="48" stroke="#111827"/>
      <line x1="82" y1="48" x2="710" y2="48" stroke="#e5e7eb"/>
      <text x="72" y="52" text-anchor="end" font-size="12">3.92</text>
  <line x1="82" y1="448" x2="82" y2="454" stroke="#111827"/>
      <text x="82" y="474" text-anchor="middle" font-size="12">1000</text>
<line x1="291.3333333333333" y1="448" x2="291.3333333333333" y2="454" stroke="#111827"/>
      <text x="291.3333333333333" y="474" text-anchor="middle" font-size="12">5000</text>
<line x1="500.66666666666663" y1="448" x2="500.66666666666663" y2="454" stroke="#111827"/>
      <text x="500.66666666666663" y="474" text-anchor="middle" font-size="12">10000</text>
<line x1="710" y1="448" x2="710" y2="454" stroke="#111827"/>
      <text x="710" y="474" text-anchor="middle" font-size="12">25000</text>
  <polyline points="82,417.474274008284 291.3333333333333,418.4381562381435 500.66666666666663,415.36127000589147 710,413.9890958387332" fill="none" stroke="#2563eb" stroke-width="2.5"/>
<polyline points="82,425.8462070307637 291.3333333333333,419.5951206199004 500.66666666666663,415.8227667729626 710,414.1134336181332" fill="none" stroke="#dc2626" stroke-width="2.5"/>
<polyline points="82,402.4712175464431 291.3333333333333,414.59542802840235 500.66666666666663,414.69526972047896 710,413.75020359881336" fill="none" stroke="#16a34a" stroke-width="2.5"/>
<polyline points="82,423.4769753107319 291.3333333333333,419.1659272665364 500.66666666666663,415.6436604235794 710,414.057991731391" fill="none" stroke="#9333ea" stroke-width="2.5"/>
<polyline points="82,377.36298108505105 291.3333333333333,410.8327272619049 500.66666666666663,411.5700648626438 710,412.94257972713933" fill="none" stroke="#ea580c" stroke-width="2.5"/>
<polyline points="82,417.97733569634653 291.3333333333333,418.6713305629876 500.66666666666663,415.41310543115947 710,413.93545280134276" fill="none" stroke="#0891b2" stroke-width="2.5"/>
<polyline points="82,243.3981483343406 291.3333333333333,345.6324902002858 500.66666666666663,373.95502120214917 710,396.448014378413" fill="none" stroke="#4f46e5" stroke-width="2.5"/>
<polyline points="82,422.99729410908424 291.3333333333333,418.70407504365113 500.66666666666663,416.28570790552743 710,415.4634756926604" fill="none" stroke="#be123c" stroke-width="2.5"/>
<polyline points="82,138.62458333167064 291.3333333333333,286.068315097345 500.66666666666663,333.297530528157 710,372.9102884728495" fill="none" stroke="#65a30d" stroke-width="2.5"/>
<polyline points="82,82.67304332132841 291.3333333333333,219.09447957915407 500.66666666666663,273.46130116722657 710,335.00767694220553" fill="none" stroke="#2563eb" stroke-width="2.5"/>
<polyline points="82,114.26514966028321 291.3333333333333,220.30293584662647 500.66666666666663,276.1586009173466 710,336.6077899556475" fill="none" stroke="#dc2626" stroke-width="2.5"/>
<polyline points="82,447.999999999878 291.3333333333333,424.4877196530233 500.66666666666663,416.69069987052427 710,415.65427723813366" fill="none" stroke="#16a34a" stroke-width="2.5"/>
<polyline points="82,139.83556956008908 291.3333333333333,134.84821994444832 500.66666666666663,194.46436018826344 710,272.0510113399055" fill="none" stroke="#9333ea" stroke-width="2.5"/>
<polyline points="291.3333333333333,416.0807344386905 500.66666666666663,412.637640388111 710,413.59793427909904" fill="none" stroke="#ea580c" stroke-width="2.5"/>
<polyline points="291.3333333333333,77.62962962962968 500.66666666666663,122.52005221569254 710,201.28769438070378" fill="none" stroke="#0891b2" stroke-width="2.5"/>
<polyline points="500.66666666666663,411.5544953744172 710,411.4233322577673" fill="none" stroke="#4f46e5" stroke-width="2.5"/>
<polyline points="500.66666666666663,406.43552959353417 710,412.0500871849725" fill="none" stroke="#be123c" stroke-width="2.5"/>
  <circle cx="82" cy="417.474274008284" r="4" fill="#2563eb"/>
<circle cx="82" cy="425.8462070307637" r="4" fill="#dc2626"/>
<circle cx="82" cy="402.4712175464431" r="4" fill="#16a34a"/>
<circle cx="82" cy="423.4769753107319" r="4" fill="#9333ea"/>
<circle cx="82" cy="377.36298108505105" r="4" fill="#ea580c"/>
<circle cx="82" cy="417.97733569634653" r="4" fill="#0891b2"/>
<circle cx="82" cy="243.3981483343406" r="4" fill="#4f46e5"/>
<circle cx="82" cy="422.99729410908424" r="4" fill="#be123c"/>
<circle cx="82" cy="138.62458333167064" r="4" fill="#65a30d"/>
<circle cx="82" cy="82.67304332132841" r="4" fill="#2563eb"/>
<circle cx="82" cy="114.26514966028321" r="4" fill="#dc2626"/>
<circle cx="82" cy="447.999999999878" r="4" fill="#16a34a"/>
<circle cx="82" cy="139.83556956008908" r="4" fill="#9333ea"/>
<circle cx="291.3333333333333" cy="418.4381562381435" r="4" fill="#2563eb"/>
<circle cx="291.3333333333333" cy="419.5951206199004" r="4" fill="#dc2626"/>
<circle cx="291.3333333333333" cy="414.59542802840235" r="4" fill="#16a34a"/>
<circle cx="291.3333333333333" cy="419.1659272665364" r="4" fill="#9333ea"/>
<circle cx="291.3333333333333" cy="410.8327272619049" r="4" fill="#ea580c"/>
<circle cx="291.3333333333333" cy="418.6713305629876" r="4" fill="#0891b2"/>
<circle cx="291.3333333333333" cy="345.6324902002858" r="4" fill="#4f46e5"/>
<circle cx="291.3333333333333" cy="418.70407504365113" r="4" fill="#be123c"/>
<circle cx="291.3333333333333" cy="286.068315097345" r="4" fill="#65a30d"/>
<circle cx="291.3333333333333" cy="416.0807344386905" r="4" fill="#ea580c"/>
<circle cx="291.3333333333333" cy="219.09447957915407" r="4" fill="#2563eb"/>
<circle cx="291.3333333333333" cy="220.30293584662647" r="4" fill="#dc2626"/>
<circle cx="291.3333333333333" cy="424.4877196530233" r="4" fill="#16a34a"/>
<circle cx="291.3333333333333" cy="134.84821994444832" r="4" fill="#9333ea"/>
<circle cx="291.3333333333333" cy="77.62962962962968" r="4" fill="#0891b2"/>
<circle cx="500.66666666666663" cy="415.36127000589147" r="4" fill="#2563eb"/>
<circle cx="500.66666666666663" cy="415.8227667729626" r="4" fill="#dc2626"/>
<circle cx="500.66666666666663" cy="414.69526972047896" r="4" fill="#16a34a"/>
<circle cx="500.66666666666663" cy="415.6436604235794" r="4" fill="#9333ea"/>
<circle cx="500.66666666666663" cy="411.5700648626438" r="4" fill="#ea580c"/>
<circle cx="500.66666666666663" cy="415.41310543115947" r="4" fill="#0891b2"/>
<circle cx="500.66666666666663" cy="373.95502120214917" r="4" fill="#4f46e5"/>
<circle cx="500.66666666666663" cy="416.28570790552743" r="4" fill="#be123c"/>
<circle cx="500.66666666666663" cy="333.297530528157" r="4" fill="#65a30d"/>
<circle cx="500.66666666666663" cy="412.637640388111" r="4" fill="#ea580c"/>
<circle cx="500.66666666666663" cy="273.46130116722657" r="4" fill="#2563eb"/>
<circle cx="500.66666666666663" cy="411.5544953744172" r="4" fill="#4f46e5"/>
<circle cx="500.66666666666663" cy="276.1586009173466" r="4" fill="#dc2626"/>
<circle cx="500.66666666666663" cy="416.69069987052427" r="4" fill="#16a34a"/>
<circle cx="500.66666666666663" cy="194.46436018826344" r="4" fill="#9333ea"/>
<circle cx="500.66666666666663" cy="406.43552959353417" r="4" fill="#be123c"/>
<circle cx="500.66666666666663" cy="122.52005221569254" r="4" fill="#0891b2"/>
<circle cx="710" cy="413.9890958387332" r="4" fill="#2563eb"/>
<circle cx="710" cy="414.1134336181332" r="4" fill="#dc2626"/>
<circle cx="710" cy="413.75020359881336" r="4" fill="#16a34a"/>
<circle cx="710" cy="414.057991731391" r="4" fill="#9333ea"/>
<circle cx="710" cy="412.94257972713933" r="4" fill="#ea580c"/>
<circle cx="710" cy="413.93545280134276" r="4" fill="#0891b2"/>
<circle cx="710" cy="396.448014378413" r="4" fill="#4f46e5"/>
<circle cx="710" cy="415.4634756926604" r="4" fill="#be123c"/>
<circle cx="710" cy="372.9102884728495" r="4" fill="#65a30d"/>
<circle cx="710" cy="413.59793427909904" r="4" fill="#ea580c"/>
<circle cx="710" cy="335.00767694220553" r="4" fill="#2563eb"/>
<circle cx="710" cy="411.4233322577673" r="4" fill="#4f46e5"/>
<circle cx="710" cy="336.6077899556475" r="4" fill="#dc2626"/>
<circle cx="710" cy="415.65427723813366" r="4" fill="#16a34a"/>
<circle cx="710" cy="272.0510113399055" r="4" fill="#9333ea"/>
<circle cx="710" cy="412.0500871849725" r="4" fill="#be123c"/>
<circle cx="710" cy="201.28769438070378" r="4" fill="#0891b2"/>
  <text x="396" y="496" text-anchor="middle" font-size="14">Sample size (rows)</text>
  <text x="22" y="248" transform="rotate(-90 22 248)" text-anchor="middle" font-size="14">Mean Spatial Error (km)</text>
  <line x1="738" y1="48" x2="760" y2="48" stroke="#2563eb" stroke-width="3"/>
      <text x="768" y="52" font-size="12">merge-nearest, none, k=5</text>
<line x1="738" y1="70" x2="760" y2="70" stroke="#dc2626" stroke-width="3"/>
      <text x="768" y="74" font-size="12">suppression-baseline, none, k=5</text>
<line x1="738" y1="92" x2="760" y2="92" stroke="#16a34a" stroke-width="3"/>
      <text x="768" y="96" font-size="12">merge-nearest, none, k=10</text>
<line x1="738" y1="114" x2="760" y2="114" stroke="#9333ea" stroke-width="3"/>
      <text x="768" y="118" font-size="12">suppression-baseline, none, k=10</text>
<line x1="738" y1="136" x2="760" y2="136" stroke="#ea580c" stroke-width="3"/>
      <text x="768" y="140" font-size="12">merge-nearest, none, k=20</text>
<line x1="738" y1="158" x2="760" y2="158" stroke="#0891b2" stroke-width="3"/>
      <text x="768" y="162" font-size="12">suppression-baseline, none, k=20</text>
<line x1="738" y1="180" x2="760" y2="180" stroke="#4f46e5" stroke-width="3"/>
      <text x="768" y="184" font-size="12">merge-nearest, period, k=5</text>
<line x1="738" y1="202" x2="760" y2="202" stroke="#be123c" stroke-width="3"/>
      <text x="768" y="206" font-size="12">suppression-baseline, period, k=5</text>
<line x1="738" y1="224" x2="760" y2="224" stroke="#65a30d" stroke-width="3"/>
      <text x="768" y="228" font-size="12">merge-nearest, period, k=10</text>
<line x1="738" y1="246" x2="760" y2="246" stroke="#2563eb" stroke-width="3"/>
      <text x="768" y="250" font-size="12">merge-nearest, period, k=20</text>
<line x1="738" y1="268" x2="760" y2="268" stroke="#dc2626" stroke-width="3"/>
      <text x="768" y="272" font-size="12">merge-nearest, hour, k=5</text>
<line x1="738" y1="290" x2="760" y2="290" stroke="#16a34a" stroke-width="3"/>
      <text x="768" y="294" font-size="12">suppression-baseline, hour, k=5</text>
<line x1="738" y1="312" x2="760" y2="312" stroke="#9333ea" stroke-width="3"/>
      <text x="768" y="316" font-size="12">merge-nearest, hour, k=10</text>
<line x1="738" y1="334" x2="760" y2="334" stroke="#ea580c" stroke-width="3"/>
      <text x="768" y="338" font-size="12">suppression-baseline, period, k=10</text>
<line x1="738" y1="356" x2="760" y2="356" stroke="#0891b2" stroke-width="3"/>
      <text x="768" y="360" font-size="12">merge-nearest, hour, k=20</text>
<line x1="738" y1="378" x2="760" y2="378" stroke="#4f46e5" stroke-width="3"/>
      <text x="768" y="382" font-size="12">suppression-baseline, period, k=20</text>
<line x1="738" y1="400" x2="760" y2="400" stroke="#be123c" stroke-width="3"/>
      <text x="768" y="404" font-size="12">suppression-baseline, hour, k=10</text>
</svg>