<svg xmlns="http://www.w3.org/2000/svg" width="900" height="520" viewBox="0 0 900 520">
  <rect width="100%" height="100%" fill="white"/>
  <text x="450" y="28" text-anchor="middle" font-size="20" font-weight="700">Runtime Across k and Temporal Settings</text>
  <line x1="82" y1="48" x2="82" y2="448" stroke="#111827"/>
  <line x1="82" y1="448" x2="710" y2="448" stroke="#111827"/>
  <line x1="76" y1="448" x2="82" y2="448" stroke="#111827"/>
      <line x1="82" y1="448" x2="710" y2="448" stroke="#e5e7eb"/>
      <text x="72" y="452" text-anchor="end" font-size="12">0</text>
<line x1="76" y1="368" x2="82" y2="368" stroke="#111827"/>
      <line x1="82" y1="368" x2="710" y2="368" stroke="#e5e7eb"/>
      <text x="72" y="372" text-anchor="end" font-size="12">28.94</text>
<line x1="76" y1="288" x2="82" y2="288" stroke="#111827"/>
      <line x1="82" y1="288" x2="710" y2="288" stroke="#e5e7eb"/>
      <text x="72" y="292" text-anchor="end" font-size="12">57.88</text>
<line x1="76" y1="207.99999999999997" x2="82" y2="207.99999999999997" stroke="#111827"/>
      <line x1="82" y1="207.99999999999997" x2="710" y2="207.99999999999997" stroke="#e5e7eb"/>
      <text x="72" y="211.99999999999997" text-anchor="end" font-size="12">86.82</text>
<line x1="76" y1="128" x2="82" y2="128" stroke="#111827"/>
      <line x1="82" y1="128" x2="710" y2="128" stroke="#e5e7eb"/>
      <text x="72" y="132" text-anchor="end" font-size="12">115.76</text>
<line x1="76" y1="48" x2="82" y2="48" stroke="#111827"/>
      <line x1="82" y1="48" x2="710" y2="48" stroke="#e5e7eb"/>
      <text x="72" y="52" text-anchor="end" font-size="12">144.70</text>
  <line x1="82" y1="448" x2="82" y2="454" stroke="#111827"/>
      <text x="82" y="474" text-anchor="middle" font-size="12">1000</text>
<line x1="291.3333333333333" y1="448" x2="291.3333333333333" y2="454" stroke="#111827"/>
      <text x="291.3333333333333" y="474" text-anchor="middle" font-size="12">5000</text>
<line x1="500.66666666666663" y1="448" x2="500.66666666666663" y2="454" stroke="#111827"/>
      <text x="500.66666666666663" y="474" text-anchor="middle" font-size="12">10000</text>
<line x1="710" y1="448" x2="710" y2="454" stroke="#111827"/>
      <text x="710" y="474" text-anchor="middle" font-size="12">25000</text>
  <polyline points="82,430.0315912269935 291.3333333333333,427.930669585842 500.66666666666663,419.33347708060353 710,404.6823130041521" fill="none" stroke="#2563eb" stroke-width="2.5"/>
<polyline points="82,441.4760854301084 291.3333333333333,436.7766554433221 500.66666666666663,427.1566458233125 710,413.1965743919767" fill="none" stroke="#dc2626" stroke-width="2.5"/>
<polyline points="82,441.6143039591315 291.3333333333333,434.0122848628596 500.66666666666663,423.72882630353894 710,386.1333864092485" fill="none" stroke="#16a34a" stroke-width="2.5"/>
<polyline points="82,442.9964892493628 291.3333333333333,437.16366732458687 500.66666666666663,424.7239997125055 710,406.976740585936" fill="none" stroke="#9333ea" stroke-width="2.5"/>
<polyline points="82,443.24528260160446 291.3333333333333,439.1816578483245 500.66666666666663,418.5041659064648 710,395.2558093247749" fill="none" stroke="#ea580c" stroke-width="2.5"/>
<polyline points="82,445.45677906597444 291.3333333333333,439.9280379050494 500.66666666666663,417.20491173364735 710,409.63053634318" fill="none" stroke="#0891b2" stroke-width="2.5"/>
<polyline points="82,434.1781470976873 291.3333333333333,385.60815599896057 500.66666666666663,322.41464452958706 710,163.85034803425606" fill="none" stroke="#4f46e5" stroke-width="2.5"/>
<polyline points="82,440.31504978631415 291.3333333333333,408.99473110967364 500.66666666666663,361.226407479281 710,220.54758863954262" fill="none" stroke="#be123c" stroke-width="2.5"/>
<polyline points="82,439.1816578483245 291.3333333333333,371.81394680245256 500.66666666666663,302.29002670381976 710,139.9108988074505" fill="none" stroke="#65a30d" stroke-width="2.5"/>
<polyline points="82,436.3067124446435 291.3333333333333,385.0829255886727 500.66666666666663,278.43350859442813 710,117.04955410702536" fill="none" stroke="#2563eb" stroke-width="2.5"/>
<polyline points="82,432.76831810165146 291.3333333333333,390.6945978670117 500.66666666666663,304.5015231681898 710,77.62962962962962" fill="none" stroke="#dc2626" stroke-width="2.5"/>
<polyline points="82,442.1118906636148 291.3333333333333,398.6283414329391 500.66666666666663,371.75865939084326 710,213.2220066013169" fill="none" stroke="#16a34a" stroke-width="2.5"/>
<polyline points="82,440.5638431385558 291.3333333333333,394.84115373770544 500.66666666666663,318.7933190691811 710,95.15573910976207" fill="none" stroke="#9333ea" stroke-width="2.5"/>
<polyline points="291.3333333333333,405.51162417829084 500.66666666666663,366.28520564152745 710,220.87931310919816" fill="none" stroke="#ea580c" stroke-width="2.5"/>
<polyline points="291.3333333333333,402.5537476571959 500.66666666666663,308.178136040205 710,89.01883642113518" fill="none" stroke="#0891b2" stroke-width="2.5"/>
<polyline points="500.66666666666663,373.8595810319948 710,245.45456756951012" fill="none" stroke="#4f46e5" stroke-width="2.5"/>
<polyline points="500.66666666666663,368.5243458117021 710,223.17374069098207" fill="none" stroke="#be123c" stroke-width="2.5"/>
  <circle cx="82" cy="430.0315912269935" r="4" fill="#2563eb"/>
<circle cx="82" cy="441.4760854301084" r="4" fill="#dc2626"/>
<circle cx="82" cy="441.6143039591315" r="4" fill="#16a34a"/>
<circle cx="82" cy="442.9964892493628" r="4" fill="#9333ea"/>
<circle cx="82" cy="443.24528260160446" r="4" fill="#ea580c"/>
<circle cx="82" cy="445.45677906597444" r="4" fill="#0891b2"/>
<circle cx="82" cy="434.1781470976873" r="4" fill="#4f46e5"/>
<circle cx="82" cy="440.31504978631415" r="4" fill="#be123c"/>
<circle cx="82" cy="439.1816578483245" r="4" fill="#65a30d"/>
<circle cx="82" cy="436.3067124446435" r="4" fill="#2563eb"/>
<circle cx="82" cy="432.76831810165146" r="4" fill="#dc2626"/>
<circle cx="82" cy="442.1118906636148" r="4" fill="#16a34a"/>
<circle cx="82" cy="440.5638431385558" r="4" fill="#9333ea"/>
<circle cx="291.3333333333333" cy="427.930669585842" r="4" fill="#2563eb"/>
<circle cx="291.3333333333333" cy="436.7766554433221" r="4" fill="#dc2626"/>
<circle cx="291.3333333333333" cy="434.0122848628596" r="4" fill="#16a34a"/>
<circle cx="291.3333333333333" cy="437.16366732458687" r="4" fill="#9333ea"/>
<circle cx="291.3333333333333" cy="439.1816578483245" r="4" fill="#ea580c"/>
<circle cx="291.3333333333333" cy="439.9280379050494" r="4" fill="#0891b2"/>
<circle cx="291.3333333333333" cy="385.60815599896057" r="4" fill="#4f46e5"/>
<circle cx="291.3333333333333" cy="408.99473110967364" r="4" fill="#be123c"/>
<circle cx="291.3333333333333" cy="371.81394680245256" r="4" fill="#65a30d"/>
<circle cx="291.3333333333333" cy="405.51162417829084" r="4" fill="#ea580c"/>
<circle cx="291.3333333333333" cy="385.0829255886727" r="4" fill="#2563eb"/>
<circle cx="291.3333333333333" cy="390.6945978670117" r="4" fill="#dc2626"/>
<circle cx="291.3333333333333" cy="398.6283414329391" r="4" fill="#16a34a"/>
<circle cx="291.3333333333333" cy="394.84115373770544" r="4" fill="#9333ea"/>
<circle cx="291.3333333333333" cy="402.5537476571959" r="4" fill="#0891b2"/>
<circle cx="500.66666666666663" cy="419.33347708060353" r="4" fill="#2563eb"/>
<circle cx="500.66666666666663" cy="427.1566458233125" r="4" fill="#dc2626"/>
<circle cx="500.66666666666663" cy="423.72882630353894" r="4" fill="#16a34a"/>
<circle cx="500.66666666666663" cy="424.7239997125055" r="4" fill="#9333ea"/>
<circle cx="500.66666666666663" cy="418.5041659064648" r="4" fill="#ea580c"/>
<circle cx="500.66666666666663" cy="417.20491173364735" r="4" fill="#0891b2"/>
<circle cx="500.66666666666663" cy="322.41464452958706" r="4" fill="#4f46e5"/>
<circle cx="500.66666666666663" cy="361.226407479281" r="4" fill="#be123c"/>
<circle cx="500.66666666666663" cy="302.29002670381976" r="4" fill="#65a30d"/>
<circle cx="500.66666666666663" cy="366.28520564152745" r="4" fill="#ea580c"/>
<circle cx="500.66666666666663" cy="278.43350859442813" r="4" fill="#2563eb"/>
<circle cx="500.66666666666663" cy="373.8595810319948" r="4" fill="#4f46e5"/>
<circle cx="500.66666666666663" cy="304.5015231681898" r="4" fill="#dc2626"/>
<circle cx="500.66666666666663" cy="371.75865939084326" r="4" fill="#16a34a"/>
<circle cx="500.66666666666663" cy="318.7933190691811" r="4" fill="#9333ea"/>
<circle cx="500.66666666666663" cy="368.5243458117021" r="4" fill="#be123c"/>
<circle cx="500.66666666666663" cy="308.178136040205" r="4" fill="#0891b2"/>
<circle cx="710" cy="404.6823130041521" r="4" fill="#2563eb"/>
<circle cx="710" cy="413.1965743919767" r="4" fill="#dc2626"/>
<circle cx="710" cy="386.1333864092485" r="4" fill="#16a34a"/>
<circle cx="710" cy="406.976740585936" r="4" fill="#9333ea"/>
<circle cx="710" cy="395.2558093247749" r="4" fill="#ea580c"/>
<circle cx="710" cy="409.63053634318" r="4" fill="#0891b2"/>
<circle cx="710" cy="163.85034803425606" r="4" fill="#4f46e5"/>
<circle cx="710" cy="220.54758863954262" r="4" fill="#be123c"/>
<circle cx="710" cy="139.9108988074505" r="4" fill="#65a30d"/>
<circle cx="710" cy="220.87931310919816" r="4" fill="#ea580c"/>
<circle cx="710" cy="117.04955410702536" r="4" fill="#2563eb"/>
<circle cx="710" cy="245.45456756951012" r="4" fill="#4f46e5"/>
<circle cx="710" cy="77.62962962962962" r="4" fill="#dc2626"/>
<circle cx="710" cy="213.2220066013169" r="4" fill="#16a34a"/>
<circle cx="710" cy="95.15573910976207" r="4" fill="#9333ea"/>
<circle cx="710" cy="223.17374069098207" r="4" fill="#be123c"/>
<circle cx="710" cy="89.01883642113518" r="4" fill="#0891b2"/>
  <text x="396" y="496" text-anchor="middle" font-size="14">Sample size (rows)</text>
  <text x="22" y="248" transform="rotate(-90 22 248)" text-anchor="middle" font-size="14">Runtime (ms)</text>
  <line x1="738" y1="48" x2="760" y2="48" stroke="#2563eb" stroke-width="3"/>
      <text x="768" y="52" font-size="12">merge-nearest, none, k=5</text>
<line x1="738" y1="70" x2="760" y2="70" stroke="#dc2626" stroke-width="3"/>
      <text x="768" y="74" font-size="12">suppression-baseline, none, k=5</text>
<line x1="738" y1="92" x2="760" y2="92" stroke="#16a34a" stroke-width="3"/>
      <text x="768" y="96" font-size="12">merge-nearest, none, k=10</text>
<line x1="738" y1="114" x2="760" y2="114" stroke="#9333ea" stroke-width="3"/>
      <text x="768" y="118" font-size="12">suppression-baseline, none, k=10</text>
<line x1="738" y1="136" x2="760" y2="136" stroke="#ea580c" stroke-width="3"/>
      <text x="768" y="140" font-size="12">merge-nearest, none, k=20</text>
<line x1="738" y1="158" x2="760" y2="158" stroke="#0891b2" stroke-width="3"/>
      <text x="768" y="162" font-size="12">suppression-baseline, none, k=20</text>
<line x1="738" y1="180" x2="760" y2="180" stroke="#4f46e5" stroke-width="3"/>
      <text x="768" y="184" font-size="12">merge-nearest, period, k=5</text>
<line x1="738" y1="202" x2="760" y2="202" stroke="#be123c" stroke-width="3"/>
      <text x="768" y="206" font-size="12">suppression-baseline, period, k=5</text>
<line x1="738" y1="224" x2="760" y2="224" stroke="#65a30d" stroke-width="3"/>
      <text x="768" y="228" font-size="12">merge-nearest, period, k=10</text>
<line x1="738" y1="246" x2="760" y2="246" stroke="#2563eb" stroke-width="3"/>
      <text x="768" y="250" font-size="12">merge-nearest, period, k=20</text>
<line x1="738" y1="268" x2="760" y2="268" stroke="#dc2626" stroke-width="3"/>
      <text x="768" y="272" font-size="12">merge-nearest, hour, k=5</text>
<line x1="738" y1="290" x2="760" y2="290" stroke="#16a34a" stroke-width="3"/>
      <text x="768" y="294" font-size="12">suppression-baseline, hour, k=5</text>
<line x1="738" y1="312" x2="760" y2="312" stroke="#9333ea" stroke-width="3"/>
      <text x="768" y="316" font-size="12">merge-nearest, hour, k=10</text>
<line x1="738" y1="334" x2="760" y2="334" stroke="#ea580c" stroke-width="3"/>
      <text x="768" y="338" font-size="12">suppression-baseline, period, k=10</text>
<line x1="738" y1="356" x2="760" y2="356" stroke="#0891b2" stroke-width="3"/>
      <text x="768" y="360" font-size="12">merge-nearest, hour, k=20</text>
<line x1="738" y1="378" x2="760" y2="378" stroke="#4f46e5" stroke-width="3"/>
      <text x="768" y="382" font-size="12">suppression-baseline, period, k=20</text>
<line x1="738" y1="400" x2="760" y2="400" stroke="#be123c" stroke-width="3"/>
      <text x="768" y="404" font-size="12">suppression-baseline, hour, k=10</text>
</svg>