<svg xmlns="http://www.w3.org/2000/svg" width="900" height="520" viewBox="0 0 900 520">
  <rect width="100%" height="100%" fill="white"/>
  <text x="450" y="28" text-anchor="middle" font-size="20" font-weight="700">Suppressed Records Across k and Temporal Settings</text>
  <line x1="82" y1="48" x2="82" y2="448" stroke="#111827"/>
  <line x1="82" y1="448" x2="710" y2="448" stroke="#111827"/>
  <line x1="76" y1="448" x2="82" y2="448" stroke="#111827"/>
      <line x1="82" y1="448" x2="710" y2="448" stroke="#e5e7eb"/>
      <text x="72" y="452" text-anchor="end" font-size="12">0</text>
<line x1="76" y1="368" x2="82" y2="368" stroke="#111827"/>
      <line x1="82" y1="368" x2="710" y2="368" stroke="#e5e7eb"/>
      <text x="72" y="372" text-anchor="end" font-size="12">5256.79</text>
<line x1="76" y1="288" x2="82" y2="288" stroke="#111827"/>
      <line x1="82" y1="288" x2="710" y2="288" stroke="#e5e7eb"/>
      <text x="72" y="292" text-anchor="end" font-size="12">10513.58</text>
<line x1="76" y1="208" x2="82" y2="208" stroke="#111827"/>
      <line x1="82" y1="208" x2="710" y2="208" stroke="#e5e7eb"/>
      <text x="72" y="212" text-anchor="end" font-size="12">15770.38</text>
<line x1="76" y1="128" x2="82" y2="128" stroke="#111827"/>
      <line x1="82" y1="128" x2="710" y2="128" stroke="#e5e7eb"/>
      <text x="72" y="132" text-anchor="end" font-size="12">21027.17</text>
<line x1="76" y1="48" x2="82" y2="48" stroke="#111827"/>
      <line x1="82" y1="48" x2="710" y2="48" stroke="#e5e7eb"/>
      <text x="72" y="52" text-anchor="end" font-size="12">26283.96</text>
  <line x1="82" y1="448" x2="82" y2="454" stroke="#111827"/>
      <text x="82" y="474" text-anchor="middle" font-size="12">1000</text>
<line x1="291.3333333333333" y1="448" x2="291.3333333333333" y2="454" stroke="#111827"/>
      <text x="291.3333333333333" y="474" text-anchor="middle" font-size="12">5000</text>
<line x1="500.66666666666663" y1="448" x2="500.66666666666663" y2="454" stroke="#111827"/>
      <text x="500.66666666666663" y="474" text-anchor="middle" font-size="12">10000</text>
<line x1="710" y1="448" x2="710" y2="454" stroke="#111827"/>
      <text x="710" y="474" text-anchor="middle" font-size="12">25000</text>
  <polyline points="82,448 291.3333333333333,448 500.66666666666663,448 710,448" fill="none" stroke="#2563eb" stroke-width="2.5"/>
<polyline points="82,446.0216070942126 291.3333333333333,445.9607334663422 500.66666666666663,446.4020672684025 710,446.53903293111085" fill="none" stroke="#dc2626" stroke-width="2.5"/>
<polyline points="82,448 291.3333333333333,448 500.66666666666663,448 710,448" fill="none" stroke="#16a34a" stroke-width="2.5"/>
<polyline points="82,443.75406445604085 291.3333333333333,441.2430273063876 500.66666666666663,443.6475356072677 710,444.9106633855781" fill="none" stroke="#9333ea" stroke-width="2.5"/>
<polyline points="82,448 291.3333333333333,448 500.66666666666663,448 710,448" fill="none" stroke="#ea580c" stroke-width="2.5"/>
<polyline points="82,440.6799462485866 291.3333333333333,434.6382386824512 500.66666666666663,434.3186521361317 710,437.392770343586" fill="none" stroke="#0891b2" stroke-width="2.5"/>
<polyline points="82,447.3912637212962 291.3333333333333,447.9695631860648 500.66666666666663,447.93912637212964 710,448" fill="none" stroke="#4f46e5" stroke-width="2.5"/>
<polyline points="82,433.9838471828446 291.3333333333333,394.4920811019344 500.66666666666663,368.5294788152166 710,323.6047414468748" fill="none" stroke="#be123c" stroke-width="2.5"/>
<polyline points="82,447.14776920981467 291.3333333333333,447.436918942199 500.66666666666663,447.93912637212964 710,447.86303433729165" fill="none" stroke="#65a30d" stroke-width="2.5"/>
<polyline points="82,444.36280073474467 291.3333333333333,445.44330762944395 500.66666666666663,446.645561779884 710,447.86303433729165" fill="none" stroke="#2563eb" stroke-width="2.5"/>
<polyline points="82,442.82574163101754 291.3333333333333,445.51939966428193 500.66666666666663,446.3564120474997 710,446.76730903562475" fill="none" stroke="#dc2626" stroke-width="2.5"/>
<polyline points="82,432.87290347421015 291.3333333333333,374.1602893932269 500.66666666666663,306.74274652677906 710,154.5586768508246" fill="none" stroke="#16a34a" stroke-width="2.5"/>
<polyline points="82,435.7339639841181 291.3333333333333,440.3603597022671 500.66666666666663,441.66914270148027 710,443.51056994455934" fill="none" stroke="#9333ea" stroke-width="2.5"/>
<polyline points="291.3333333333333,375.5603828342457 500.66666666666663,328.413758048635 710,241.86667762391968" fill="none" stroke="#ea580c" stroke-width="2.5"/>
<polyline points="291.3333333333333,424.98976866499567 500.66666666666663,431.94458064918683 710,437.0731837972665" fill="none" stroke="#0891b2" stroke-width="2.5"/>
<polyline points="500.66666666666663,297.2464605789995 710,147.71039371540667" fill="none" stroke="#4f46e5" stroke-width="2.5"/>
<polyline points="500.66666666666663,296.16595368430023 710,77.62962962962962" fill="none" stroke="#be123c" stroke-width="2.5"/>
  <circle cx="82" cy="448" r="4" fill="#2563eb"/>
<circle cx="82" cy="446.0216070942126" r="4" fill="#dc2626"/>
<circle cx="82" cy="448" r="4" fill="#16a34a"/>
<circle cx="82" cy="443.75406445604085" r="4" fill="#9333ea"/>
<circle cx="82" cy="448" r="4" fill="#ea580c"/>
<circle cx="82" cy="440.6799462485866" r="4" fill="#0891b2"/>
<circle cx="82" cy="447.3912637212962" r="4" fill="#4f46e5"/>
<circle cx="82" cy="433.9838471828446" r="4" fill="#be123c"/>
<circle cx="82" cy="447.14776920981467" r="4" fill="#65a30d"/>
<circle cx="82" cy="444.36280073474467" r="4" fill="#2563eb"/>
<circle cx="82" cy="442.82574163101754" r="4" fill="#dc2626"/>
<circle cx="82" cy="432.87290347421015" r="4" fill="#16a34a"/>
<circle cx="82" cy="435.7339639841181" r="4" fill="#9333ea"/>
<circle cx="291.3333333333333" cy="448" r="4" fill="#2563eb"/>
<circle cx="291.3333333333333" cy="445.9607334663422" r="4" fill="#dc2626"/>
<circle cx="291.3333333333333" cy="448" r="4" fill="#16a34a"/>
<circle cx="291.3333333333333" cy="441.2430273063876" r="4" fill="#9333ea"/>
<circle cx="291.3333333333333" cy="448" r="4" fill="#ea580c"/>
<circle cx="291.3333333333333" cy="434.6382386824512" r="4" fill="#0891b2"/>
<circle cx="291.3333333333333" cy="447.9695631860648" r="4" fill="#4f46e5"/>
<circle cx="291.3333333333333" cy="394.4920811019344" r="4" fill="#be123c"/>
<circle cx="291.3333333333333" cy="447.436918942199" r="4" fill="#65a30d"/>
<circle cx="291.3333333333333" cy="375.5603828342457" r="4" fill="#ea580c"/>
<circle cx="291.3333333333333" cy="445.44330762944395" r="4" fill="#2563eb"/>
<circle cx="291.3333333333333" cy="445.51939966428193" r="4" fill="#dc2626"/>
<circle cx="291.3333333333333" cy="374.1602893932269" r="4" fill="#16a34a"/>
<circle cx="291.3333333333333" cy="440.3603597022671" r="4" fill="#9333ea"/>
<circle cx="291.3333333333333" cy="424.98976866499567" r="4" fill="#0891b2"/>
<circle cx="500.66666666666663" cy="448" r="4" fill="#2563eb"/>
<circle cx="500.66666666666663" cy="446.4020672684025" r="4" fill="#dc2626"/>
<circle cx="500.66666666666663" cy="448" r="4" fill="#16a34a"/>
<circle cx="500.66666666666663" cy="443.6475356072677" r="4" fill="#9333ea"/>
<circle cx="500.66666666666663" cy="448" r="4" fill="#ea580c"/>
<circle cx="500.66666666666663" cy="434.3186521361317" r="4" fill="#0891b2"/>
<circle cx="500.66666666666663" cy="447.93912637212964" r="4" fill="#4f46e5"/>
<circle cx="500.66666666666663" cy="368.5294788152166" r="4" fill="#be123c"/>
<circle cx="500.66666666666663" cy="447.93912637212964" r="4" fill="#65a30d"/>
<circle cx="500.66666666666663" cy="328.413758048635" r="4" fill="#ea580c"/>
<circle cx="500.66666666666663" cy="446.645561779884" r="4" fill="#2563eb"/>
<circle cx="500.66666666666663" cy="297.2464605789995" r="4" fill="#4f46e5"/>
<circle cx="500.66666666666663" cy="446.3564120474997" r="4" fill="#dc2626"/>
<circle cx="500.66666666666663" cy="306.74274652677906" r="4" fill="#16a34a"/>
<circle cx="500.66666666666663" cy="441.66914270148027" r="4" fill="#9333ea"/>
<circle cx="500.66666666666663" cy="296.16595368430023" r="4" fill="#be123c"/>
<circle cx="500.66666666666663" cy="431.94458064918683" r="4" fill="#0891b2"/>
<circle cx="710" cy="448" r="4" fill="#2563eb"/>
<circle cx="710" cy="446.53903293111085" r="4" fill="#dc2626"/>
<circle cx="710" cy="448" r="4" fill="#16a34a"/>
<circle cx="710" cy="444.9106633855781" r="4" fill="#9333ea"/>
<circle cx="710" cy="448" r="4" fill="#ea580c"/>
<circle cx="710" cy="437.392770343586" r="4" fill="#0891b2"/>
<circle cx="710" cy="448" r="4" fill="#4f46e5"/>
<circle cx="710" cy="323.6047414468748" r="4" fill="#be123c"/>
<circle cx="710" cy="447.86303433729165" r="4" fill="#65a30d"/>
<circle cx="710" cy="241.86667762391968" r="4" fill="#ea580c"/>
<circle cx="710" cy="447.86303433729165" r="4" fill="#2563eb"/>
<circle cx="710" cy="147.71039371540667" r="4" fill="#4f46e5"/>
<circle cx="710" cy="446.76730903562475" r="4" fill="#dc2626"/>
<circle cx="710" cy="154.5586768508246" r="4" fill="#16a34a"/>
<circle cx="710" cy="443.51056994455934" r="4" fill="#9333ea"/>
<circle cx="710" cy="77.62962962962962" r="4" fill="#be123c"/>
<circle cx="710" cy="437.0731837972665" r="4" fill="#0891b2"/>
  <text x="396" y="496" text-anchor="middle" font-size="14">Sample size (rows)</text>
  <text x="22" y="248" transform="rotate(-90 22 248)" text-anchor="middle" font-size="14">Suppressed Records (records)</text>
  <line x1="738" y1="48" x2="760" y2="48" stroke="#2563eb" stroke-width="3"/>
      <text x="768" y="52" font-size="12">merge-nearest, none, k=5</text>
<line x1="738" y1="70" x2="760" y2="70" stroke="#dc2626" stroke-width="3"/>
      <text x="768" y="74" font-size="12">suppression-baseline, none, k=5</text>
<line x1="738" y1="92" x2="760" y2="92" stroke="#16a34a" stroke-width="3"/>
      <text x="768" y="96" font-size="12">merge-nearest, none, k=10</text>
<line x1="738" y1="114" x2="760" y2="114" stroke="#9333ea" stroke-width="3"/>
      <text x="768" y="118" font-size="12">suppression-baseline, none, k=10</text>
<line x1="738" y1="136" x2="760" y2="136" stroke="#ea580c" stroke-width="3"/>
      <text x="768" y="140" font-size="12">merge-nearest, none, k=20</text>
<line x1="738" y1="158" x2="760" y2="158" stroke="#0891b2" stroke-width="3"/>
      <text x="768" y="162" font-size="12">suppression-baseline, none, k=20</text>
<line x1="738" y1="180" x2="760" y2="180" stroke="#4f46e5" stroke-width="3"/>
      <text x="768" y="184" font-size="12">merge-nearest, period, k=5</text>
<line x1="738" y1="202" x2="760" y2="202" stroke="#be123c" stroke-width="3"/>
      <text x="768" y="206" font-size="12">suppression-baseline, period, k=5</text>
<line x1="738" y1="224" x2="760" y2="224" stroke="#65a30d" stroke-width="3"/>
      <text x="768" y="228" font-size="12">merge-nearest, period, k=10</text>
<line x1="738" y1="246" x2="760" y2="246" stroke="#2563eb" stroke-width="3"/>
      <text x="768" y="250" font-size="12">merge-nearest, period, k=20</text>
<line x1="738" y1="268" x2="760" y2="268" stroke="#dc2626" stroke-width="3"/>
      <text x="768" y="272" font-size="12">merge-nearest, hour, k=5</text>
<line x1="738" y1="290" x2="760" y2="290" stroke="#16a34a" stroke-width="3"/>
      <text x="768" y="294" font-size="12">suppression-baseline, hour, k=5</text>
<line x1="738" y1="312" x2="760" y2="312" stroke="#9333ea" stroke-width="3"/>
      <text x="768" y="316" font-size="12">merge-nearest, hour, k=10</text>
<line x1="738" y1="334" x2="760" y2="334" stroke="#ea580c" stroke-width="3"/>
      <text x="768" y="338" font-size="12">suppression-baseline, period, k=10</text>
<line x1="738" y1="356" x2="760" y2="356" stroke="#0891b2" stroke-width="3"/>
      <text x="768" y="360" font-size="12">merge-nearest, hour, k=20</text>
<line x1="738" y1="378" x2="760" y2="378" stroke="#4f46e5" stroke-width="3"/>
      <text x="768" y="382" font-size="12">suppression-baseline, period, k=20</text>
<line x1="738" y1="400" x2="760" y2="400" stroke="#be123c" stroke-width="3"/>
      <text x="768" y="404" font-size="12">suppression-baseline, hour, k=10</text>
</svg>